<?xml version="1.0" encoding="utf-8"?>
<!-- Svg Vector Icons : http://www.onlinewebfonts.com/icon -->
<!DOCTYPE svg PUBLIC "-//W3C//DTD SVG 1.1//EN" "http://www.w3.org/Graphics/SVG/1.1/DTD/svg11.dtd">
<svg version="1.1" xmlns="http://www.w3.org/2000/svg" xmlns:xlink="http://www.w3.org/1999/xlink" x="0px" y="0px" viewBox="0 0 256 256" enable-background="new 0 0 256 256" xml:space="preserve">
<metadata> Svg Vector Icons : http://www.onlinewebfonts.com/icon </metadata>
<g><g><path fill="#000000" d="M137.8,236.4c-36,0-71.1-17.8-91.8-50.4c-1.7-2.7-0.9-6.2,1.8-7.9c2.7-1.7,6.2-0.9,7.9,1.8c13.8,21.9,35.4,37.1,60.7,42.7c25.3,5.7,51.2,1.2,73.1-12.7s37.1-35.4,42.7-60.7c5.7-25.3,1.2-51.2-12.7-73.1c-13.8-21.9-35.4-37.1-60.7-42.7c-25.3-5.7-51.2-1.2-73.1,12.7c-28.5,18-45.3,48.9-45.1,82.7c0,3.2-2.5,5.7-5.7,5.8c0,0,0,0,0,0c-3.1,0-5.7-2.5-5.7-5.7C29,91.2,47.8,56.6,79.7,36.4c24.5-15.5,53.5-20.5,81.7-14.2c28.2,6.4,52.3,23.3,67.8,47.8c32,50.5,16.9,117.6-33.6,149.5C177.7,231,157.6,236.4,137.8,236.4z M175.1,182.1c-2.1,0-4.2-0.8-5.9-2.4l-40.7-40.7c-1.5-1.5-2.4-3.7-2.4-5.8V62.4c0-4.6,3.7-8.3,8.3-8.3c4.6,0,8.3,3.7,8.3,8.3v67.3L181,168c3.2,3.2,3.2,8.5,0,11.7C179.3,181.3,177.2,182.1,175.1,182.1z M34.9,134.6c-0.3,0-0.6,0-0.8-0.1c-1.6-0.2-3.1-1.2-4-2.6l-19.2-30.4c-1.7-2.7-0.9-6.2,1.8-7.9c2.7-1.7,6.2-0.9,7.9,1.8l15.7,24.8l20-17.1c2.4-2,6-1.8,8.1,0.7c2,2.4,1.8,6-0.6,8.1l-25,21.3C37.6,134.1,36.3,134.6,34.9,134.6z"/></g></g>
</svg>